<mxfile host="app.diagrams.net" modified="2023-05-12T07:50:00.410Z" agent="Mozilla/5.0 (Windows NT 10.0; Win64; x64) AppleWebKit/537.36 (KHTML, like Gecko) Chrome/112.0.0.0 Safari/537.36" etag="w944OpcNKT8Yie9GzADj" version="21.2.9" type="github">
  <diagram name="多日高开低走" id="CnSF_I2wFI3b2ZkjsRIX">
    <mxGraphModel dx="890" dy="457" grid="1" gridSize="10" guides="1" tooltips="1" connect="1" arrows="1" fold="1" page="1" pageScale="1" pageWidth="827" pageHeight="1169" math="0" shadow="0">
      <root>
        <mxCell id="0" />
        <mxCell id="1" parent="0" />
        <mxCell id="aJm9lT0rJDODZ854DXyM-3" value="" style="shape=stencil(lV3Jkh3HDfwaXjtqX86y/R+KECUyJIsMkvLy9wbM6DevM3sSw5s4qnxdCwo7UO/qT18//Pz5/buSvn778un39//++Mu3D+/q396V8vHPD++/fPxm//Wu/v1d/enXT1/e//bl019//vL9359/9pH+X//89C//hf98x6WjJAeV9N/vf9j7KP3/f/nH9/F/fPxTjl9HGmp83tfx88jy9/O8ju9Hq3L8uI6vx8xyfL+OL0fS49t1fDrakuPLZfzaR9pyfL6On8fUv3/d/zWOpvcTxvcjyd9P1/Natp/pR8aXozY5fl3H5yPJ84Xxcx9T7me60s9cx9DzudLPnMcocvyVfuY4qqT/dKWf2Y8qzytd6We2o+j9udLPrEeR9Jyu9DBLNB5+Px9ZzqfC7yd53zOud+xjCXrLx8j0+4KeC/IHG69+vxxj4XqboId6ns7Tfqr9sdtUcLyi53au7ul8u5h/O2/rM/2I3++0P+3YcvwA+u/nim7HD+SHdl+KuC+D9n8cW9zfifzN7m8X+2+3G9a7Tol2O34R/1nHFPS8jg70ueV69w1/23L8AH6ejin2JxMDMoZbxYUxQAdAkTuUM7IUA2xxBAZo8AUtYwywAdCOJog0F/qCcV01JZsxidWk2FY9WkaAogsDrKtgMkGvGHtup5x4AgzBqQ2wKgIUKeVOX1hSluVBJ72OpQHA7UwbqurgJooPAyh1yAAL9MuHBnAPoAvqCp0iPrqhBljqHDay4J2PIqZUEvJ4Awwl09JJak8ANSWTmrUSQHBtAyyakgSUUyq9dUoVGXcMGPuHAA1FswGUqDUAksaDtb0KuJK3E5+40w4AvrTOS/sq4Cqu7E53dQ4GADYzpH7nAFDITQFQxMcAY22C890AijTRbhadjx58AdhMkkaIARpoAdpKM0AFMT1PifEq8ZEeE1ArGL6mWEkm0NDyMs1t6CmhaVGlquQAshUUq3QAKMNZKp8OIO1c6Rq+S9cpmbmgzAsHXKc01qnxvgq4XtExThHzVkCPLhBOqZ+reiugnV6VtwJquK0AMJ1PsxlcdA7P4XofRpIKll+gKzPuO9qlcqWlvrRl2E5V5AEYUl9i7t17xATGREDS2wqqQ2/SmnTAVRPoRZpLZr9VWEPWix7o8LAvKIefW3AFAV0BJp10lSaTAVahXVLbamrtRMBWGtlCc6AHd3qfivMzLWnAvN6HbgJFyIdKjlQjb2VlGQDErl2gJRZtgH39gl1Rpd3XjNtqTEDZQAaY110yNtPFLtWC3lFjZMqOM0CbCFAnbQCwH8bj0t4DKl6goU1LA+AXxmmS3wNIDR1Dulhqxws0pvZZ9XNPnoWiAgw6uHX+5R4wkfhMTjcFWKRgJe1H2zeOvakObuM5uGdP3LiWTqXzCaBYZctIraYvKWvXAH0jQFm7rdx4A9W2GmCQO1DJ6VZJ52tSxhmgs4NbbWujXeqn0f8aYJJmrLT7RjLOAMpoMsAmp6Zc9CD7YZzq+z1gUhhgnJzqNQD6Qae0RdtCJuCOUHUOD9fNE0CZZW2fTOX5C2pK+4yUPS1aWVkGwPvQpBpqgAEGR5VKogOAlrIUio2cOcZmul4DuLyM8wVrmKB7T2kpOoAsFGWW3XyhSzfFzRqqtEUdABKoSE+inwMIRR0GdABpM8pnzCdt+pISijeAKSWQA0Dn66fX7FUAqNItunFA3qYZK0dIo+iA6d7BolFJzFpkbRSKPcn4vAOutOR/CdjMlbybdrUYANRQZ89KPuxTQD0AXXPvjaZla9IGcsD14FyuBl+AKQW6xkZNwNQV5YVzwHWXTCFS+lLbmClRdSTdAdeDe9ECXwVcd8n0zAhwpSXTZJVpeQNo5x186y5VadL4wcGiS8QqEZAjRoaAFO0SqD9mbEby4UpLZv+q8JpdeXDQuoUt2IwxlUwAlWXRH679pzUowW58DuR0TfKKGidF4kvSfWoAyDywg1OCvZOv0gDKnjYAfqFIvbVT8N6otYgr2jsKdrsPKvupjzNy9QRQhp8B5lWw2xVV+VImZIEZGxNQzs0+kTSqdtCa3IfgV30kAbwGWHDjllTWTRWBQGrd0gZyTwzIOG3tjoRrMIByF7nrBsRuPlWue0DGyKvZjkpOu68HxG6Vdpy7lGENTQpFA4CS6KagWkNFCWSCXVkoBgCDw1QHlf04GtpxBlDpMgYAh5RpMzJfpqHrsWm91d1PpGApZ84gJuACQKXkDIw0BTrfIHeR8XMlp83iQa90kfJhEBNw9qxOeiHx9Uek9DUAasYBLS1M8Og6M3CQkui8UE2J7YclufekxAK3gQQznsQ13Mks1vCSHPdklql0VHehTQQo7d5DjuSVVt6fSR4sAyh2PyuaNEMLdgPsigDlip8NeauxtqkB6D6tUgIZAIhvNJnlNTsqusYWVNDFvtDI7634kjsaB05JmfjzLmqpQoSTPIkj61xBCpk7aegvJPI6KPlwA5hSu+cpdR0d4EUbI1O6xqRQrcfjgm0lE18lqUxKXXix7N5IGk1bijwlE7s52CWQ001au0x87tjW9wHOwfQlyfnopJvOLGZaMp1POfsnZVOYGtqD+8Amvj64RCa+yj6dlBHiynqwhqtA8WBVAAArq0k11Ln3dVs9BqgWXc8JPNlxMsW4YjjBTEtJGiRQypYeLAdcd8nzjgPAdZfKlD6BSVHLMqRPYFJ+a+nRoiH+4BkcwZQAoPOM5yMv7QHI0lJ0AHhOktTuHXA9uLylF453KS+t/hDxecZrIFAAMGRMcTZMLMg9+gL4vXPTxNdRdTCAirx6mIi+IHdpYEgk6+S5OdEss11SYR2vEuh4DlI+bFrD0l/YqHsbLSl/66JEfaNWlbqwMp500a5HA6BjUDs3V8GUqqIz+71SAL7QpGa8yGI3NqOM10V5ZMbIltrWdlL/E6tUxLc6lgJ4+pD6wiAZl6Qdtyilqj5SDe4Bk9zYuobDSwtAZFWZubkW6RpNmmVroaXoaSuKWhd5Eoc0y9bG0lRTToqiVoqWuZ9PbOumYri6pdfhpbTgSYVTHqxNmf0tS711Z3QytyJv3M54RU3RVXJ6U9JW0wrWLmQOdEneu2D02N12atEVmbGbA+Kkd8XogAGUN3QT12hTL7phjN0AStHdHRPE25IXyACgzRhACfY9yGe8JdfYE1VpjydrAMank/7CujEtlVa5F7L7rvME9kbeagB5RReF/ZMU7A7YtK3qHBaRt44/OAAObkTbOsnaDRaNgCoj4DeLztEagDSMVSqh6ADgrUtm0G5y0Bq7V6meDgCRNWQMZS9UsExkKUvxBqC1mRtAlQa4A0BOF+kTcABoAlnXo/K26pomvqJF54b6SbMtqiQQkYZXFQd3+soEXvLkXwWAKq3zjG8AOSI+ULBcWf+hL5g5oDy6NwBd2cxX1EwaFTjibc0jBFwPzswyFdtl4stV2kB8p3OR3lAHwKJ14YoDYNG6cGVTgek63UFvnNEMmQz41aXVdyNCpfuXr2coS+D3dVUZn3HIwYCutTeaxW2ScexN0f4kXfyuYeDvq4Yqm8ySJBN590abIeC/lMKXtCinbFBd/7zJL5G0gbFRTw01NvR7yLApzz/QRCipOEtz3vcfpI0MyGxK3SsRPYCGqhsQOX3ifir/hdM/7qfyO93IDWmXs9hIoWKH9CmNCrL7UySKwduetFCiNEXtfLHxFdcbjAeBEc6H9kfl0u2N/imdkM73MZ3Bg1fHEz3o+8XjNf+E8w34P2UnVult3pv8FTLGuynZvWt5SnniQ3touEZBRi2Yn29ZM+rjQQUKFJSNRkekAhFFR0rWxmYQkRq3yR0fKIobC3AiVfSRlvJWZZfS0CN1ep85UW9V2AkQmQQMCIwOWkNk1tAuRYYTnUNkmtFJR8bfxvyfyLwk4qspvECc2Bt84Xofqg79841zMz+YEpj5LVK60MzXYZG9yd2i+1NsqnapgYOTaoKqbhbkAMqiDaa02LseqKbgcy3RfYA4e6syguwAcN31SJvd5MpWRUQOAO/6ksmYDiB/pVKAc6IegV0LiDtE0T7RjbF8r/nXNwLc5b2G7sGEAFVstSeGIruu2TEAlDfaolX+5h5IHF3nq20qM/U82iBGMBEgjZGOym1Pepcaeo57YC5TFcRLseA9oFLG9JaVHJtiyE2n6xsA2HELPMeFAiNTx2oyFb0F3DVj29LI5Z9QCzVGo0o/dqKYWZN+grWx6V6Q379IBjl31QDwjLQse/N4syyIpASB84W+FJdBKiS8KMKri3EXhcACObomMrKqq0bXI0jxpAsoGWQAVE+qjHMsSrcxfUYCOqlYWaY9eUsxWIPuwmoAKGooulpxUXe4smSEd1H/uTKl9r0oEd0drzp7hjPilOd1PZplPWnfKhS5Eoa13TZWu0TdqYuus5isrmtv26TIYpCUNCcluGn5YIBMhpnKqXhp0Pxk+inyfmm89mwrqjV0TB42a1TZu96PggAy67tj1oZNSZZ+UHpBDmpFOtaKRJmJHWkpyn3smDEdZVd2uqJB/mbHFOsoQ5QBQQ5qx5zsKMu1I2+N8mg75mRHmbodU6yjXOBODugg27hTinWQz9zQ5IgyphsaNVFOdqMU6yDru6HuHeeVIyDMXEcZF+bGb1JOgux7yMmO8/tBAsUVBGCWxTUKWMgaVkFgXWpYZ4E6X1jJgV6BsFYEHNJxNQoCwnoXmFJcUQN55b384En3JnMfnfi4l2HAl6DuSD+UwNy7B7vU0RwYOnLrAGoiI0mjY5OxUfSd7ugPHVW2QZ6dagm1WXYDGPJ9CL4PQ2e5Tm6ZOnTRGxU1jB4VNWDTvSZtIG/SNHBbVY7ELMhmhm504FWj1JBILjrTootszz4fNaJPxCd1voRapZeZKpFFT7fYfZCl4xS5HklyPi9Zpisa1Diju0j38TAAKCfONVS9/KTS8SEbdHmrQy6gVFOi3Pjede+FQa06m2yp7TcYeGuVtOQV+dRjVTlCvH8XJa0qZX1wJ9okL9CgbrpN6xqDuIY3mFPnUCk3fsnucHYhwVIMvHCj3HjhVOrBKFRxqfsAjky5Ul3fuEyFrE3X/BPXcH1JsHsDYOZ6ka6WTnGaphNS+kbOZ0qiIu9OGSmuhgrSMAB8wessFGBSXxsda+rUc9gAigl4XxvS7pWi651zQLvXeQLGhTDANqTvvpM9Xbvs3dapf3UQVeyVzLImUwsMABHqWqVp2QsZTUWy+04vu1Qdwuv0YJTZovLgEtUHJ6mc9ERfSPo+UGdmL+dSu8SAoh91SjcuYGX4eRkGkYZi9w4g4lN2XKdSqKDZmwHA5RW0k3MA7JJuWOeAH2qJ5wDg3rrpXue2TbqtnwOAGeseGJ3eW2s1/AIw4y7Fbk+ozTTd14a31Vse6S8ALTXdLLon6jqTZKrNDSBLK+ulwdGTRiZ5K10gb9WpRFai2G6TmvENQAeObgC6oekNYEnXowOomY/srJaomY9+YYcZmTeW1dvayVJUhp8DyHiVD+Al1Plc39dcAxJsR3gf0FLc0lLsiR4V1DmhPWGUZuaIlrAHd41EFvjIZosODgE9Ij6wFD3Qo7+ATxeG5wDND6furNYo9WzqDKZGuc7++p/q7bnoOcUtPYltUnXJ1i1TB+ZITf1ElUuDjYCg2zp/Qdmijfx8c8o40E3H+ClDtY2s3eAVSROy+Ixk0G290juPU/dNLpjW6w3gVSfagqalt5hXtJTR6xC8OGUAUE5e3M73gIRuO2cCivhIwfL+J+qtDCoGcWekIL5K1TtTm8emQ5aFAJXaVskhNXXSlunBSEvBuyudOvdrg6NSiHBoZ05t5NzUzpxakc34iyLqOZuCVQlDO3Pc4gE5PWQ2haekgJzWfW1qxjyBoE2+24WkOihGVslSHNo85kd/hm7KWqi4YujOm2VTSES3QfZqRtb51JS4/nBJN3ZZ1LVy6rcnJzKBrt8M9henqFWnfCps0Bf0q/Rl0Bp032R/ZosbmuqHvCDG3nWqvgEgetx1Nbs31qFtlU8YdmqZqnvdlk4ZtCv6AsTj+pZGU6HePC8O1dcAlWOKekoIKNGiEaB7JN0AmrSybgBdsvvCcVH9gsINYEp7unTirUvmaxTqauw2kHqyjZXEJIuUHEDPOykT3wGga+h879Kxc78pJ9Eu0eNLEYCeRpIvdHa02AMlke+0q9KaNPCFHZ1H5mzmuksraWbcUcatLN1FpdPD2MEDtAwInrhlQPCIbkfNOHqml7r/RA8BUylA9NQwmWU7eKGTBMpLM6o3LtoT6/WUgJY8119PCZT1rb0//ODm1k2K+aXU3aQjpND7aBGgYGpbDKgMUGvIN4sOADeLVoBEr4HrFzoz1QPtKjM3vbayIEDJuEzPne0q15Dp0dCtH+fL9CzpLrKdnD92XxGgTvolq/jpxikPVu6Y5eVP0as1kFDcOlE/N/SGbi12c0W9dWkPlgEqAZQTIRc0/NbSaygYDPYyEFXvlvGk15RSNJNpaexeKes5IW9dXXK+TDdu6WdJvUgc5EOT4TUqS3eZqIotMf69qi7uQS/I0hGXhTlkpgXIDC9kekuXxpGNuJJ+MIIEtK5NGmiZzK0fykG7ey4dKSc31JKFeg3D3lPXw1AyQfRAJcqQqRMdqaBn6r4MlZyTXZ5vwdJef+FAjm+kzCsvXaY3RXXKIr2kYdaF2v+E2eM2XuW90fs+bu7I8ez3VBpqpmBJjcYP3H/lxMxkrnVJP5mMLx22pnzOqfObebzONsj0PuvWspv4p+6jxOOLdKhSM+il3RA8Xt+vjB4wE3kq7yZjWqbJVKluEf/fMo+BMu+8Oa/+fTZWJD1DZG7renN6LHprl2LGUqU9dVE+jV+yjJrH66dOMga0XtqTvDa+4XjlaKY0rJf+EG/jh1s/d59QS/RGCWJ/qNbyqevBKwDsOxYCGq1Yz6jSiekVg4QMdxRtgejECv2+ooiEHCuguHi8/cfnn799+P6PXz/+8cfXb18+/f7++f//+unL+9++fPrrz18ef/r64efP7+1f/wM=);lineShape=1;" vertex="1" parent="1">
          <mxGeometry x="117.10587984679421" y="156.20259577081163" width="484.189046269899" height="285.51837801891395" as="geometry" />
        </mxCell>
        <mxCell id="aJm9lT0rJDODZ854DXyM-4" value="&lt;font color=&quot;#ff3333&quot; style=&quot;font-size: 25px;&quot;&gt;&lt;b&gt;？第五天怎么走？&lt;/b&gt;&lt;/font&gt;" style="text;html=1;strokeColor=none;fillColor=none;align=center;verticalAlign=middle;whiteSpace=wrap;rounded=0;" vertex="1" parent="1">
          <mxGeometry x="610" y="200" width="220" height="30" as="geometry" />
        </mxCell>
        <mxCell id="aJm9lT0rJDODZ854DXyM-5" value="" style="endArrow=none;dashed=1;html=1;dashPattern=1 3;strokeWidth=2;rounded=0;" edge="1" parent="1">
          <mxGeometry width="50" height="50" relative="1" as="geometry">
            <mxPoint x="60" y="420" as="sourcePoint" />
            <mxPoint x="680" y="420" as="targetPoint" />
          </mxGeometry>
        </mxCell>
        <mxCell id="aJm9lT0rJDODZ854DXyM-6" value="" style="endArrow=none;dashed=1;html=1;dashPattern=1 3;strokeWidth=2;rounded=0;" edge="1" parent="1">
          <mxGeometry width="50" height="50" relative="1" as="geometry">
            <mxPoint x="104" y="380" as="sourcePoint" />
            <mxPoint x="724" y="380" as="targetPoint" />
          </mxGeometry>
        </mxCell>
        <mxCell id="aJm9lT0rJDODZ854DXyM-7" value="" style="endArrow=none;dashed=1;html=1;dashPattern=1 3;strokeWidth=2;rounded=0;" edge="1" parent="1">
          <mxGeometry width="50" height="50" relative="1" as="geometry">
            <mxPoint x="104" y="346" as="sourcePoint" />
            <mxPoint x="724" y="346" as="targetPoint" />
          </mxGeometry>
        </mxCell>
        <mxCell id="aJm9lT0rJDODZ854DXyM-8" value="" style="endArrow=none;dashed=1;html=1;dashPattern=1 3;strokeWidth=2;rounded=0;" edge="1" parent="1">
          <mxGeometry width="50" height="50" relative="1" as="geometry">
            <mxPoint x="104" y="310" as="sourcePoint" />
            <mxPoint x="724" y="310" as="targetPoint" />
          </mxGeometry>
        </mxCell>
        <mxCell id="aJm9lT0rJDODZ854DXyM-9" value="连续几日高开低走，收盘价高于昨日收盘价2%-3%" style="text;html=1;strokeColor=none;fillColor=none;align=center;verticalAlign=middle;whiteSpace=wrap;rounded=0;" vertex="1" parent="1">
          <mxGeometry x="110" y="190" width="320" height="30" as="geometry" />
        </mxCell>
      </root>
    </mxGraphModel>
  </diagram>
</mxfile>
